<svg version="1.0" xmlns="http://www.w3.org/2000/svg" width="533.333" height="533.333" viewBox="0 0 400 400"><path d="M126.5 22.6c-24.3 1.2-45.7 7.4-61.3 17.7-8.9 6-21.8 19.4-27 28.3-7.1 11.9-11.9 26.6-14.4 43.9-1.9 13-1.9 163.3 0 175.5 4.1 26.2 11.8 43.4 26.5 58.7 16.2 16.8 34.4 25.5 62.2 29.5 12.9 1.9 162.1 1.9 175 0 26.5-3.8 43.6-11.5 59.3-26.6 14.9-14.3 23-29.6 27.7-52.1 3-14.8 3.7-36.9 3.2-108.8-.3-58.9-.7-71.7-2-79.7-4.3-25-11.7-40.8-26-55.7-15.6-16.2-32.1-24.4-58.7-29-6.9-1.2-22.5-1.6-83-1.8-41-.1-77.6 0-81.5.1zM270 55c19.3 1.1 29 3.3 40.7 9 15.6 7.7 26.4 22 31.3 41.5 3 11.9 4 34.3 4 94 0 60.4-1 83.2-4 95-4.9 19.5-15.7 33.8-31.3 41.5-18 8.8-30.7 10-110.2 10-60.1 0-83.4-1-95-4-19.6-4.9-33.8-15.7-41.5-31.4-8.8-17.9-10-30.7-10-110.1 0-80.5 1.2-93.2 10-111.1C74.4 68.1 94.8 57 127 55.1c19.5-1.2 123.6-1.2 143-.1z"/><path d="M290.3 83.9c-5.1 1.3-9.6 4.4-12.8 9-2.7 3.9-3 5-3 12.1 0 7.2.3 8.2 3.1 12.1 4.8 6.6 10.3 9.1 18.6 8.7 5.5-.3 7.5-.9 11-3.4 13.4-9.4 11.9-29.4-2.7-36.7-3.9-1.9-10.2-2.7-14.2-1.8zM188.4 109.1c-34.6 4-65 29.5-75.7 63.5-10.3 32.7-1 69.6 23.6 93.1 15.3 14.6 33 22.9 54 25.2 43.3 4.9 83.9-21.8 97.1-63.8 10.2-32.4.8-69.4-23.7-92.8-15-14.3-33.2-23-53.5-25.3-9.7-1.1-11.7-1.1-21.8.1zm30.6 34.8c19 6.6 33.5 22.5 38.5 42.1 2.3 8.9 1.7 24.1-1.4 33-5.8 16.9-20.2 31.3-37.1 37.1-8.9 3.1-24.1 3.7-33 1.4-19.4-5-35.7-19.9-42.1-38.5-3.1-8.9-3.7-24.1-1.4-33 3.7-14.4 13.3-28 25.4-35.7 6.1-3.9 8.2-4.8 16.6-7.4 8.6-2.6 25.5-2.1 34.5 1z"/></svg>