<svg version="1.0" xmlns="http://www.w3.org/2000/svg" width="401.333" height="401.333" viewBox="0 0 301 301"><path d="M138 21.1c-50.2 5.4-94 40.7-110 88.7-5.1 15.4-6.5 24.1-6.4 41.7 0 18 1.5 28.1 6.5 42.3 6.7 19.1 15.6 33.6 29.2 47.9 11.2 11.7 21.4 19.4 34.3 26 21.4 11 36.9 14.7 60.9 14.7 17.4 0 29.6-2 43.9-7.1 69.9-25.1 105.2-103.6 77.6-172.5-14.5-36.2-45-64.6-81.6-76.1-16.8-5.3-37.6-7.4-54.4-5.6zm58 54.8v16.9l-12.6.3c-16.3.5-16.4.6-16.4 15.5V119l3.8.1c2 .1 8.6.2 14.6.3l10.9.1-.6 8.5c-.4 4.7-1.2 12-1.8 16.3l-1.1 7.7H167l-.2 45.7-.3 45.8-19.7.3-19.8.2v-92h-19v-32h19v-12.3c0-26.8 4.8-37.6 19.6-44.4 6.4-2.9 15.6-4 34.7-4.2L196 59v16.9z"/></svg>